<?xml version="1.0" standalone="no"?>
<!DOCTYPE svg PUBLIC "-//W3C//DTD SVG 20010904//EN"
 "http://www.w3.org/TR/2001/REC-SVG-20010904/DTD/svg10.dtd">
<svg version="1.0" xmlns="http://www.w3.org/2000/svg"
 width="512.000000pt" height="512.000000pt" viewBox="0 0 512.000000 512.000000"
 preserveAspectRatio="xMidYMid meet">
<metadata>
Created by potrace 1.14, written by Peter Selinger 2001-2017
</metadata>
<g transform="translate(0.000000,512.000000) scale(0.100000,-0.100000)"
fill="#000000" stroke="none">
<path d="M2379 5116 c-2 -2 -38 -6 -79 -10 -64 -6 -213 -30 -315 -51 -201 -42
-477 -149 -682 -265 -293 -166 -508 -351 -760 -653 -44 -53 -170 -244 -219
-332 -132 -238 -223 -485 -273 -740 -40 -200 -46 -267 -45 -515 0 -183 3 -241
19 -345 3 -16 7 -43 9 -60 7 -48 36 -185 52 -245 155 -566 479 -1042 948
-1394 321 -240 732 -415 1112 -471 22 -4 50 -8 64 -11 103 -19 473 -26 600
-12 147 17 153 18 250 38 30 6 66 13 80 16 111 21 368 110 505 175 656 311
1151 881 1364 1574 78 254 105 448 106 740 0 193 -3 251 -16 330 -4 28 -10 66
-13 85 -2 19 -9 58 -15 85 -6 28 -13 61 -15 75 -19 96 -80 286 -133 415 -272
659 -838 1194 -1518 1432 -84 29 -73 26 -215 63 -63 17 -131 33 -150 35 -19 3
-46 8 -60 10 -14 3 -41 7 -60 10 -19 3 -53 7 -75 11 -46 6 -460 16 -466 10z
m-384 -870 c132 -110 242 -202 245 -205 3 -4 44 -39 92 -78 126 -106 150 -118
228 -118 72 1 102 13 171 71 24 20 64 53 88 73 24 20 101 84 170 142 69 58
189 158 265 221 l140 115 55 -26 c138 -65 304 -170 425 -270 94 -76 236 -217
236 -233 0 -7 -77 -205 -170 -438 -182 -454 -190 -482 -156 -560 8 -19 30 -50
48 -69 18 -18 206 -141 416 -273 l384 -241 -7 -46 c-4 -25 -9 -62 -11 -81 -9
-76 -67 -291 -106 -395 -22 -60 -66 -159 -96 -218 l-56 -109 -110 6 c-61 4
-131 9 -156 11 -25 2 -92 7 -150 10 -58 3 -127 8 -155 10 -344 27 -378 27
-437 -3 -91 -47 -101 -67 -174 -358 -36 -142 -67 -266 -69 -274 -2 -8 -24 -96
-49 -194 -42 -166 -53 -194 -81 -197 -5 0 -19 -2 -30 -4 -136 -25 -203 -30
-395 -30 -158 0 -219 5 -365 30 -64 10 -75 17 -84 54 -6 20 -55 218 -111 440
-55 222 -109 420 -120 441 -41 81 -131 125 -235 116 -27 -2 -97 -7 -155 -11
-58 -4 -125 -8 -150 -10 -25 -2 -90 -6 -145 -10 -55 -3 -120 -8 -145 -10 -25
-2 -97 -7 -161 -10 l-116 -7 -46 89 c-119 231 -192 467 -222 714 l-5 46 62 40
c35 22 205 129 378 238 173 109 330 210 347 224 40 31 73 106 75 165 0 35 -36
135 -171 473 -94 235 -171 434 -171 441 0 15 144 157 235 232 104 85 242 175
367 240 91 48 115 56 128 47 9 -7 124 -102 255 -211z"/>
<path d="M2465 3282 c-22 -11 -60 -34 -85 -53 -25 -19 -56 -42 -70 -51 -14 -9
-74 -53 -135 -97 -60 -44 -121 -88 -135 -98 -117 -85 -146 -112 -169 -156 -42
-84 -38 -124 41 -367 142 -439 138 -427 185 -474 71 -71 94 -75 478 -71 182 1
337 5 345 7 46 14 72 31 107 68 44 45 41 38 172 442 125 384 130 370 -229 631
-135 98 -264 190 -288 204 -59 35 -160 42 -217 15z"/>
</g>
</svg>
